<?xml version="1.0" standalone="no"?>
<!DOCTYPE svg PUBLIC "-//W3C//DTD SVG 20010904//EN"
 "http://www.w3.org/TR/2001/REC-SVG-20010904/DTD/svg10.dtd">
<svg version="1.0" xmlns="http://www.w3.org/2000/svg"
 width="1273.000000pt" height="1273.000000pt" viewBox="0 0 1273.000000 1273.000000"
 preserveAspectRatio="xMidYMid meet">

<g transform="translate(0.000000,1273.000000) scale(0.100000,-0.100000)"
fill="#000000" stroke="none">
<path d="M11210 12299 c-1909 -16 -3600 -24 -5285 -24 -2002 0 -4875 11 -5523
22 l-402 6 0 -85 c0 -99 -2 -96 97 -104 43 -3 63 -1 63 7 0 8 4 8 13 1 15 -12
139 -11 148 2 4 4 16 3 27 -3 16 -9 21 -7 25 9 6 24 38 26 72 4 13 -9 29 -13
35 -9 7 4 7 -2 0 -20 -7 -17 -7 -32 0 -43 8 -15 9 -14 10 5 0 12 10 34 23 48
l23 27 66 -17 c66 -16 200 -17 226 -1 7 4 20 2 28 -5 10 -8 32 -10 72 -5 31 4
64 7 72 6 32 -2 169 -8 247 -11 52 -1 88 3 97 10 9 7 15 8 18 2 2 -6 64 -10
158 -9 85 0 223 0 305 0 196 -1 986 -2 1140 -1 66 0 406 1 755 1 349 1 664 2
700 2 36 0 184 -1 330 -2 146 -2 397 -2 558 0 160 2 292 0 292 -4 0 -3 16 -2
36 4 20 5 48 7 62 3 22 -5 690 -19 717 -15 47 8 277 9 331 2 41 -6 74 -6 80
-1 6 5 114 9 240 10 126 0 238 0 249 0 86 1 205 -8 205 -15 0 -5 6 -3 14 3 8
6 31 11 52 10 22 0 63 0 92 1 29 1 59 -3 66 -9 11 -9 15 -9 18 1 4 10 8 10 21
-1 14 -11 20 -11 32 -1 12 10 21 10 38 2 32 -16 59 -18 84 -4 16 9 29 9 49 2
15 -6 29 -8 32 -5 3 3 0 5 -6 5 -7 0 -12 4 -12 9 0 5 26 11 58 14 229 22 292
27 332 22 25 -3 95 -5 155 -5 61 0 164 -8 230 -16 77 -11 144 -14 190 -10 88
9 94 9 128 0 20 -5 27 -3 27 8 0 22 288 33 860 34 424 1 816 6 1310 18 102 3
246 0 320 -5 74 -5 142 -9 150 -8 8 0 87 2 175 4 88 2 277 6 420 11 143 4 286
6 318 5 l57 -2 0 67 0 66 -402 -3 c-222 -2 -725 -7 -1118 -10z"/>
<path d="M11017 12093 c-13 -12 -7 -33 8 -33 8 0 15 9 15 20 0 20 -11 26 -23
13z"/>
<path d="M12320 12086 c0 -9 7 -16 16 -16 9 0 14 5 12 12 -6 18 -28 21 -28 4z"/>
<path d="M9675 12070 c-9 -15 4 -30 26 -30 25 0 25 16 0 30 -13 7 -22 7 -26 0z"/>
<path d="M7026 12063 c-11 -11 -6 -23 9 -23 8 0 15 4 15 9 0 13 -16 22 -24 14z"/>
<path d="M8380 12041 c0 -5 7 -14 15 -21 13 -10 15 -9 15 9 0 12 -6 21 -15 21
-8 0 -15 -4 -15 -9z"/>
<path d="M12552 12033 c-83 -3 -112 -7 -109 -16 2 -8 45 -13 146 -15 132 -2
142 -1 139 15 -4 20 -8 21 -176 16z"/>
<path d="M11805 12020 l-40 -6 28 -12 c35 -15 301 -16 328 -2 43 24 15 30
-128 29 -82 -1 -166 -5 -188 -9z"/>
<path d="M11125 12010 c-44 -3 -64 -7 -44 -8 19 -1 40 -7 46 -13 7 -7 71 -9
186 -7 152 3 179 5 194 21 16 16 10 17 -142 15 -88 -1 -196 -5 -240 -8z"/>
<path d="M11568 12013 c7 -3 16 -2 19 1 4 3 -2 6 -13 5 -11 0 -14 -3 -6 -6z"/>
<path d="M11608 12013 c7 -3 16 -2 19 1 4 3 -2 6 -13 5 -11 0 -14 -3 -6 -6z"/>
<path d="M0 11990 c0 -19 7 -20 139 -20 131 0 201 11 201 31 0 5 -76 9 -170 9
-163 0 -170 -1 -170 -20z"/>
<path d="M610 12001 c-42 -28 173 -52 294 -33 72 12 88 18 69 30 -19 12 -346
14 -363 3z"/>
<path d="M9965 12002 c-166 -3 -206 -12 -139 -32 44 -13 230 -9 449 10 104 9
152 9 188 1 110 -25 473 -3 389 23 -20 7 -451 6 -887 -2z"/>
<path d="M1272 11992 c-25 -17 19 -25 164 -30 98 -3 148 -1 164 8 12 6 19 14
16 18 -10 9 -330 14 -344 4z"/>
<path d="M8863 11990 c-204 -3 -374 -8 -378 -11 -3 -4 7 -12 23 -18 21 -9 77
-11 198 -6 215 8 396 8 602 0 137 -5 170 -4 205 10 24 9 47 15 53 14 5 -1 23
0 39 1 l30 2 -35 9 c-19 5 -109 8 -200 6 -91 -1 -332 -4 -537 -7z"/>
<path d="M1900 11982 c0 -20 74 -31 210 -30 297 2 462 0 606 -7 125 -6 157 -4
185 8 19 8 41 18 49 20 8 3 -28 6 -80 6 -52 1 -292 4 -532 8 -318 4 -438 3
-438 -5z"/>
<path d="M7655 11980 c-291 -3 -532 -6 -535 -8 -2 -1 0 -6 6 -12 5 -5 49 -10
97 -11 48 -1 89 -5 92 -9 3 -4 -5 -21 -18 -36 -35 -45 -40 -52 -137 -174 -103
-130 -97 -123 -165 -210 -27 -36 -52 -67 -55 -70 -3 -3 -28 -34 -55 -70 -28
-36 -87 -112 -133 -170 -45 -58 -104 -132 -130 -165 -26 -33 -53 -67 -59 -75
-7 -8 -23 -29 -35 -46 -26 -35 -137 -176 -168 -213 -12 -13 -19 -26 -16 -28 4
-4 60 61 128 148 14 19 35 44 45 56 10 11 25 31 33 43 8 12 29 39 47 59 27 30
82 98 111 136 4 6 43 55 88 110 74 93 200 250 227 285 7 8 83 104 169 211
l157 197 103 7 c100 7 241 9 557 7 111 -1 163 3 187 13 19 8 34 16 34 18 0 11
-75 12 -575 7z"/>
<path d="M3222 11968 c6 -17 80 -25 203 -23 104 2 145 10 145 26 0 5 -74 9
-176 9 -136 0 -175 -3 -172 -12z"/>
<path d="M3835 11971 c-13 -22 38 -30 206 -32 86 -1 155 3 172 10 16 6 47 12
70 12 l42 2 -45 8 c-64 11 -438 11 -445 0z"/>
<path d="M4563 11972 c-52 -3 -68 -14 -37 -26 9 -3 84 -6 168 -6 142 0 176 6
176 29 0 6 -219 8 -307 3z"/>
<path d="M5223 11973 c-35 -2 -63 -8 -63 -12 0 -15 59 -21 194 -21 101 0 137
3 152 15 17 13 8 14 -88 15 -58 0 -112 1 -120 3 -7 2 -41 1 -75 0z"/>
<path d="M5862 11972 c-36 -2 -52 -7 -49 -15 6 -19 82 -27 221 -21 125 5 224
5 592 4 156 -1 222 9 209 30 -6 10 -812 11 -973 2z"/>
<path d="M1494 11511 c-2 -2 -4 -62 -4 -133 l0 -128 41 -45 c26 -28 50 -45 65
-45 47 0 68 -35 139 -235 31 -88 67 -189 80 -225 13 -36 35 -99 49 -140 34
-101 104 -300 115 -325 5 -11 16 -39 26 -62 10 -23 27 -51 39 -61 29 -27 108
-36 171 -19 l50 13 12 60 c7 32 17 86 23 119 5 33 19 103 30 155 11 52 25 120
30 150 34 207 69 315 101 315 12 0 15 -48 21 -275 11 -449 41 -3149 36 -3225
-3 -42 -16 -100 -33 -145 -54 -145 -43 -314 29 -463 37 -77 56 -104 124 -179
42 -45 126 -107 154 -112 7 -2 22 -7 33 -12 11 -5 61 -9 110 -9 81 1 97 4 156
33 115 56 212 175 257 315 22 67 23 312 3 372 -43 130 -127 235 -252 317 l-56
37 -6 453 c-3 249 -11 1000 -17 1668 -10 1220 -17 1441 -46 1528 -43 126 -125
231 -218 280 -45 24 -62 27 -151 26 -83 0 -108 -3 -146 -22 -118 -58 -200
-193 -249 -410 -10 -46 -21 -86 -24 -90 -12 -11 -24 14 -66 143 -76 233 -127
316 -219 362 -31 15 -63 18 -219 18 -101 0 -185 -2 -188 -4z m1531 -4278 c137
-96 103 -344 -59 -429 -16 -7 -50 -14 -76 -14 -64 0 -107 30 -144 104 -25 48
-30 69 -29 124 1 40 8 79 17 97 9 17 16 34 16 38 0 22 46 70 88 92 61 33 129
28 187 -12z"/>
<path d="M2871 7143 c-15 -13 -23 -34 -28 -70 -7 -61 3 -115 18 -92 5 7 9 26
9 40 0 14 9 34 21 45 17 16 22 16 29 4 6 -8 10 -10 10 -4 0 7 16 15 35 18 25
5 35 12 35 26 0 44 -88 67 -129 33z"/>
<path d="M7640 11326 c-147 -31 -263 -161 -306 -343 -50 -211 50 -508 212
-628 29 -22 54 -45 54 -51 0 -29 -139 -116 -226 -140 -59 -16 -62 -18 -68 -53
-3 -20 -6 -70 -6 -111 0 -101 20 -136 84 -145 52 -8 228 0 342 16 135 18 354
75 409 106 11 6 24 11 28 11 4 0 27 9 50 20 130 60 140 63 147 52 11 -18 20
-529 21 -1285 1 -379 1 -718 0 -753 -1 -68 -15 -76 -24 -15 -3 21 -22 108 -41
193 -46 197 -135 593 -147 645 -4 22 -19 90 -33 150 -13 61 -38 175 -56 255
-17 80 -39 161 -48 180 l-17 35 -117 1 c-64 1 -121 -1 -126 -5 -5 -3 -24 -73
-42 -156 -42 -201 -92 -436 -145 -690 -24 -115 -60 -286 -81 -380 -20 -93 -39
-182 -41 -197 -3 -16 -8 -28 -12 -28 -4 0 -12 231 -18 513 -10 479 -12 517
-32 587 -56 192 -157 320 -295 372 -51 19 -80 23 -181 23 -115 0 -123 -1 -187
-33 -113 -55 -217 -190 -253 -327 -32 -124 -15 -288 42 -413 78 -172 195 -273
336 -287 50 -6 70 -12 77 -25 6 -11 12 -382 17 -936 6 -911 6 -917 27 -941 21
-24 23 -24 211 -25 217 -1 253 4 260 35 3 12 17 81 31 152 14 72 35 173 46
225 25 119 32 155 51 255 9 44 31 157 51 250 19 94 42 206 50 250 9 44 25 121
36 170 10 50 38 185 60 300 86 442 119 573 140 560 9 -6 35 -99 54 -195 9 -41
22 -106 31 -145 9 -38 38 -176 65 -305 46 -221 92 -435 160 -750 16 -74 56
-265 90 -425 34 -163 71 -310 83 -335 l22 -45 212 0 c137 0 216 4 223 11 12
12 12 910 1 2974 -6 1144 -5 1218 12 1268 25 76 64 237 76 312 20 133 20 139
3 159 -16 18 -34 19 -247 23 l-230 3 -13 -120 c-23 -211 -83 -389 -182 -535
-61 -90 -166 -178 -187 -157 -3 3 2 27 11 54 36 111 46 324 20 433 -18 77 -72
191 -116 244 -96 117 -235 171 -368 142z m196 -354 c47 -37 57 -70 52 -156 -9
-134 -65 -196 -178 -196 -115 0 -160 52 -160 185 0 70 3 85 27 120 14 22 34
45 42 50 67 42 162 41 217 -3z m-881 -1831 c16 -9 43 -28 60 -43 27 -25 30
-34 33 -101 5 -84 -15 -142 -65 -189 -94 -90 -244 -65 -272 46 -24 95 -10 192
36 247 55 65 134 80 208 40z"/>
<path d="M7682 10898 c-21 -10 -23 -17 -20 -77 3 -55 6 -66 21 -69 15 -3 18 1
13 16 -9 26 19 47 63 47 32 0 36 3 39 28 2 16 -3 36 -12 46 -18 20 -71 24
-104 9z"/>
<path d="M6833 9053 c-9 -3 -13 -27 -13 -72 0 -38 5 -75 13 -84 11 -15 12 -14
13 13 1 17 10 39 20 48 24 22 74 28 85 10 6 -9 9 -3 9 19 0 53 -70 89 -127 66z"/>
<path d="M9072 11155 c0 -16 2 -22 5 -12 2 9 2 23 0 30 -3 6 -5 -1 -5 -18z"/>
<path d="M1460 11067 c0 -16 74 -54 119 -61 32 -6 33 -5 26 21 -4 16 -11 34
-17 40 -14 18 -128 18 -128 0z"/>
<path d="M9047 10983 c-30 -111 -58 -206 -69 -235 -6 -17 -7 -50 -3 -85 l8
-58 12 65 c7 36 24 103 38 149 22 74 46 231 36 231 -3 0 -12 -30 -22 -67z"/>
<path d="M3153 10770 c0 -25 2 -35 4 -22 2 12 2 32 0 45 -2 12 -4 2 -4 -23z"/>
<path d="M5467 10718 c-9 -6 0 -1126 20 -2335 4 -244 2 -393 -3 -393 -6 0 -23
55 -38 123 -16 67 -37 157 -48 200 -10 43 -27 119 -38 170 -19 87 -36 162
-144 632 -25 110 -51 223 -57 250 -16 76 -30 106 -54 115 -29 11 -233 6 -244
-6 -5 -5 -26 -90 -46 -189 -58 -288 -143 -706 -154 -755 -6 -25 -22 -101 -36
-170 -49 -236 -67 -310 -74 -310 -5 0 -11 201 -15 448 -7 450 -13 532 -46 653
-32 117 -96 212 -192 284 -88 66 -171 89 -307 83 -97 -4 -112 -7 -169 -38 -80
-43 -157 -125 -204 -221 -43 -88 -58 -153 -58 -258 0 -276 207 -551 416 -551
26 0 47 -6 55 -17 11 -13 15 -131 22 -617 4 -331 10 -747 13 -925 l6 -325 29
-28 28 -29 176 1 c210 2 262 13 270 60 1 3 5 25 9 50 12 73 36 202 45 245 13
58 27 127 67 340 47 248 58 305 77 395 9 41 46 228 82 415 36 187 70 358 75
380 5 22 18 90 30 150 11 61 25 119 30 130 4 11 11 29 15 40 5 16 8 17 15 5
17 -27 59 -194 111 -445 57 -273 68 -325 83 -385 9 -36 22 -96 30 -135 8 -38
62 -290 121 -560 58 -269 113 -519 120 -554 9 -43 22 -73 40 -90 l25 -26 200
-2 c178 -1 202 1 222 17 l22 17 -12 1254 c-7 690 -14 1358 -17 1484 -3 127 -7
487 -11 800 -4 400 -9 577 -18 595 l-11 25 -224 5 c-122 3 -228 2 -234 -2z
m-1417 -1558 c8 -5 30 -24 49 -43 79 -83 53 -251 -50 -323 -36 -25 -52 -29
-105 -29 -109 1 -142 45 -143 191 -1 119 26 172 109 207 35 16 108 14 140 -3z
m-394 -327 c-10 -10 -19 5 -10 18 6 11 8 11 12 0 2 -7 1 -15 -2 -18z m-22 -19
c3 -8 2 -12 -4 -9 -6 3 -10 10 -10 16 0 14 7 11 14 -7z"/>
<path d="M3938 9077 c-13 -10 -18 -28 -18 -63 l0 -49 23 26 c26 31 73 45 93
28 11 -9 14 -8 14 8 0 43 -78 77 -112 50z"/>
<path d="M6316 10653 c-6 -14 -5 -15 5 -6 7 7 10 15 7 18 -3 3 -9 -2 -12 -12z"/>
<path d="M3151 10634 c0 -11 3 -14 6 -6 3 7 2 16 -1 19 -3 4 -6 -2 -5 -13z"/>
<path d="M6243 10567 c-12 -17 -32 -45 -43 -62 -12 -16 1 -5 29 25 28 30 51
58 51 63 0 16 -16 5 -37 -26z"/>
<path d="M8983 10565 c0 -22 2 -30 4 -17 2 12 2 30 0 40 -3 9 -5 -1 -4 -23z"/>
<path d="M6083 10485 c0 -22 2 -30 4 -17 2 12 2 30 0 40 -3 9 -5 -1 -4 -23z"/>
<path d="M6156 10453 c-6 -14 -5 -15 5 -6 7 7 10 15 7 18 -3 3 -9 -2 -12 -12z"/>
<path d="M7300 10440 c0 -5 5 -10 10 -10 6 0 10 5 10 10 0 6 -4 10 -10 10 -5
0 -10 -4 -10 -10z"/>
<path d="M6130 10422 c0 -6 -11 -14 -25 -18 l-26 -6 2 -134 c0 -76 5 -137 11
-140 6 -4 9 35 8 107 -2 116 2 141 28 172 8 9 12 20 9 24 -4 3 -7 1 -7 -5z"/>
<path d="M7325 10410 c3 -5 8 -10 11 -10 2 0 4 5 4 10 0 6 -5 10 -11 10 -5 0
-7 -4 -4 -10z"/>
<path d="M2380 10118 c-7 -57 -14 -109 -16 -115 -3 -13 -35 -15 -271 -17 -45
-1 -84 -4 -87 -7 -3 -3 2 -13 12 -22 12 -11 40 -16 102 -18 90 -2 125 -12 116
-34 -4 -10 2 -11 27 -4 18 5 55 9 83 9 38 0 53 4 58 16 10 25 7 294 -3 294 -5
0 -14 -46 -21 -102z"/>
<path d="M3164 10105 c0 -66 1 -92 3 -57 2 34 2 88 0 120 -2 31 -3 3 -3 -63z"/>
<path d="M3163 9870 c0 -47 2 -66 4 -42 2 23 2 61 0 85 -2 23 -4 4 -4 -43z"/>
<path d="M8215 9900 c-185 -97 -559 -170 -869 -170 -79 0 -86 -2 -86 -20 0
-16 7 -20 35 -20 21 0 37 -6 43 -17 8 -13 25 -16 93 -16 46 1 110 3 142 7 34
3 57 2 57 -4 0 -6 9 -10 20 -10 11 0 20 4 20 8 0 10 117 52 143 52 23 0 183
38 220 52 20 8 31 7 41 -2 12 -9 22 -8 48 4 43 19 109 37 119 31 4 -3 10 1 12
7 3 7 6 4 6 -7 1 -17 3 -17 11 -5 11 18 13 127 3 133 -5 2 -30 -9 -58 -23z"/>
<path d="M6092 9715 c0 -16 2 -22 5 -12 2 9 2 23 0 30 -3 6 -5 -1 -5 -18z"/>
<path d="M6092 9590 c0 -14 2 -19 5 -12 2 6 2 18 0 25 -3 6 -5 1 -5 -13z"/>
<path d="M9965 9555 c-257 -56 -489 -282 -574 -559 -27 -86 -27 -130 -1 -156
17 -17 33 -20 108 -20 118 0 129 4 157 59 31 61 128 162 189 197 105 59 230
60 340 1 88 -48 130 -113 145 -224 6 -37 13 -549 16 -1138 4 -663 10 -1082 17
-1103 5 -17 18 -37 28 -42 11 -6 109 -10 229 -10 167 0 212 3 224 14 12 12 13
165 10 1018 -5 1245 -9 1332 -76 1515 -29 79 -100 195 -156 256 -97 104 -185
157 -317 192 -72 19 -255 19 -339 0z"/>
<path d="M3168 9405 c-4 -11 -6 -96 -5 -190 1 -133 3 -157 9 -110 10 72 6 329
-4 300z"/>
<path d="M9925 9008 c-35 -12 -84 -47 -121 -86 -30 -32 -57 -87 -77 -157 l-14
-50 -79 -1 c-377 -2 -376 -2 -372 -26 2 -14 16 -29 36 -38 41 -20 168 -26 187
-10 8 7 54 14 102 17 117 6 130 9 138 36 41 133 131 237 231 265 58 17 64 15
64 -13 0 -26 12 -30 60 -16 26 7 90 -21 90 -40 0 -5 6 -9 14 -9 7 0 17 -10 21
-22 l8 -23 4 22 c5 25 -26 90 -55 116 -46 42 -166 60 -237 35z"/>
<path d="M3164 8905 c0 -55 1 -76 3 -47 2 29 2 74 0 100 -2 26 -3 2 -3 -53z"/>
<path d="M6101 8664 c0 -11 3 -14 6 -6 3 7 2 16 -1 19 -3 4 -6 -2 -5 -13z"/>
<path d="M6470 8577 c0 -8 11 -25 24 -39 14 -13 45 -50 70 -82 61 -79 178
-152 274 -172 18 -4 22 0 22 20 0 24 -16 36 -50 36 -36 0 -130 42 -182 81 -29
22 -77 69 -105 105 -29 36 -53 59 -53 51z"/>
<path d="M3174 8330 c0 -91 2 -128 3 -82 2 45 2 119 0 165 -1 45 -3 8 -3 -83z"/>
<path d="M3682 8445 c1 -14 6 -25 11 -25 4 0 6 -4 3 -8 -2 -4 13 -8 34 -7 l39
0 -27 23 c-15 12 -35 27 -44 32 -15 9 -18 7 -16 -15z"/>
<path d="M3820 8360 c19 -17 40 -30 47 -30 7 0 20 -8 30 -19 22 -23 63 -12 63
18 0 15 -9 21 -41 26 -23 4 -57 14 -75 21 -53 22 -62 16 -24 -16z"/>
<path d="M5010 8267 c0 -19 -7 -76 -15 -128 -8 -52 -20 -125 -26 -164 -6 -38
-15 -78 -20 -87 -11 -20 4 -33 19 -15 16 19 38 85 57 169 11 48 21 75 28 71
12 -7 2 104 -14 155 -14 42 -29 41 -29 -1z"/>
<path d="M7887 8117 c-15 -89 -32 -182 -37 -207 -10 -48 -51 -278 -81 -450
-10 -58 -25 -127 -34 -155 -16 -51 -43 -187 -51 -260 -2 -22 6 -2 17 45 11 47
31 121 44 165 21 75 81 357 91 435 3 19 9 51 14 70 5 19 14 78 20 130 11 97
46 230 63 242 17 11 6 148 -11 148 -4 0 -20 -73 -35 -163z"/>
<path d="M4941 7824 c0 -11 3 -14 6 -6 3 7 2 16 -1 19 -3 4 -6 -2 -5 -13z"/>
<path d="M4927 7783 c-11 -10 -8 -43 3 -43 6 0 10 11 10 25 0 26 -2 29 -13 18z"/>
<path d="M3173 7659 c-1 -16 2 -29 7 -29 12 0 13 47 3 53 -5 3 -9 -8 -10 -24z"/>
<path d="M4901 7604 c0 -11 3 -14 6 -6 3 7 2 16 -1 19 -3 4 -6 -2 -5 -13z"/>
<path d="M4870 7431 c0 -10 -3 -33 -6 -50 -4 -17 -2 -31 3 -31 5 0 10 23 11
50 1 28 0 50 -3 50 -3 0 -5 -8 -5 -19z"/>
<path d="M4850 7324 c0 -8 5 -12 10 -9 6 4 8 11 5 16 -9 14 -15 11 -15 -7z"/>
<path d="M4843 7269 c-13 -27 -32 -115 -31 -141 1 -10 -4 -42 -10 -73 -7 -30
-17 -81 -23 -112 -6 -32 -17 -76 -25 -98 -16 -45 -19 -89 -5 -81 12 8 43 125
37 142 -3 7 1 26 9 41 8 15 15 40 15 55 0 14 6 53 14 85 30 127 38 170 35 188
-4 16 -5 15 -16 -6z"/>
<path d="M7672 6980 c0 -14 2 -19 5 -12 2 6 2 18 0 25 -3 6 -5 1 -5 -13z"/>
<path d="M3497 6915 c-5 -33 -15 -73 -22 -90 -7 -16 -19 -47 -26 -67 -7 -20
-16 -35 -21 -32 -4 3 -8 -1 -8 -9 0 -51 -146 -221 -235 -273 -152 -88 -311
-96 -474 -23 -75 34 -88 36 -44 8 18 -11 35 -29 38 -40 8 -25 41 -42 66 -34
11 4 39 -1 63 -10 38 -15 42 -19 38 -43 -5 -27 -5 -27 16 -8 18 15 36 18 101
17 44 -1 82 3 85 8 4 5 43 27 89 49 140 68 270 228 307 377 7 28 19 68 27 91
8 22 13 62 11 90 l-3 49 -8 -60z"/>
<path d="M7651 6874 c0 -11 3 -14 6 -6 3 7 2 16 -1 19 -3 4 -6 -2 -5 -13z"/>
<path d="M7617 6682 c-3 -15 -10 -46 -16 -69 -6 -24 -13 -60 -15 -80 -2 -21
-8 -52 -14 -69 -5 -17 -6 -37 -2 -44 8 -12 15 17 53 208 7 40 11 75 7 77 -4 3
-10 -8 -13 -23z"/>
<path d="M9012 6450 c0 -14 2 -19 5 -12 2 6 2 18 0 25 -3 6 -5 1 -5 -13z"/>
<path d="M10282 6431 c16 -25 33 -28 188 -30 68 -1 128 -5 132 -9 9 -9 354 -6
368 3 6 3 10 14 10 24 0 25 -63 30 -418 31 -290 1 -292 0 -280 -19z"/>
<path d="M5562 6423 l-102 -4 20 -22 c18 -19 35 -23 128 -28 62 -3 115 -2 127
4 17 9 219 12 340 5 44 -3 50 -1 53 18 3 18 -4 22 -44 28 -45 6 -309 5 -522
-1z"/>
<path d="M4206 6410 c-171 -4 -197 -7 -183 -19 10 -7 17 -19 17 -26 0 -18 47
-28 71 -14 14 7 73 10 168 8 97 -2 153 1 167 8 11 7 61 12 116 11 98 0 122 5
115 25 -4 13 -143 15 -471 7z"/>
<path d="M6968 6401 l-57 -6 17 -23 c20 -26 17 -26 228 -16 139 6 194 -2 179
-26 -6 -9 4 -8 43 7 9 3 50 7 90 9 53 2 79 7 93 20 12 11 16 21 10 27 -11 11
-519 18 -603 8z"/>
<path d="M8362 6393 c3 -16 20 -19 123 -24 125 -6 165 -14 165 -32 0 -7 4 -7
12 1 15 15 274 17 283 2 4 -6 10 -6 18 0 7 6 21 17 31 24 12 8 17 19 13 30 -6
14 -39 16 -327 16 -301 0 -321 -1 -318 -17z"/>
<path d="M5840 6010 c0 -48 -22 -105 -53 -139 -24 -26 -112 -71 -139 -71 -31
0 -106 -38 -146 -74 -22 -20 -52 -62 -67 -94 -25 -53 -27 -63 -20 -136 8 -91
31 -148 81 -201 19 -20 34 -40 34 -45 0 -5 24 -20 54 -35 50 -25 58 -26 123
-17 58 8 75 15 101 42 18 17 32 36 32 40 0 5 6 7 13 5 7 -3 13 4 14 17 0 13 8
50 17 82 13 52 13 69 2 135 -8 42 -16 82 -17 90 -3 9 13 23 40 37 63 32 106
78 137 147 32 72 44 180 24 227 l-12 30 -109 0 -109 0 0 -40z m-132 -476 c37
-8 46 -29 37 -86 -11 -61 -51 -98 -108 -98 -25 0 -49 6 -55 13 -20 25 -24 91
-7 124 25 51 58 62 133 47z"/>
<path d="M9235 5896 c-100 -24 -187 -76 -268 -161 -102 -106 -180 -342 -132
-396 13 -13 23 -15 53 -8 165 40 249 48 258 24 7 -18 21 -19 54 -2 25 13 79
14 195 1 33 -4 94 -7 135 -8 94 -3 192 -36 209 -72 9 -21 14 -22 37 -13 21 7
35 6 61 -6 58 -28 68 -19 65 55 -5 97 -19 146 -68 245 -79 161 -195 278 -319
324 -76 28 -199 36 -280 17z m129 -222 c9 -3 16 -15 16 -25 0 -16 6 -18 43
-13 33 5 55 0 100 -21 66 -30 137 -91 137 -117 0 -22 2 -22 -54 3 -26 11 -95
31 -154 44 -107 25 -152 26 -304 9 -64 -6 -64 14 -1 57 70 48 176 79 217 63z"/>
<path d="M2595 5835 c-27 -8 -63 -17 -78 -19 -16 -3 -34 -11 -40 -18 -7 -8
-30 -27 -52 -43 -48 -35 -97 -86 -136 -142 -35 -51 -98 -187 -97 -210 0 -10
-3 -45 -7 -78 l-7 -60 35 -18 c29 -16 42 -17 91 -8 31 6 62 13 67 17 6 3 25 8
42 10 18 3 56 9 86 14 39 7 57 7 62 -1 5 -9 15 -9 39 0 41 14 183 14 233 0 28
-7 53 -7 91 2 45 10 65 9 135 -7 81 -18 88 -24 83 -65 -2 -13 50 -20 64 -8 8
7 27 9 48 5 19 -4 37 -3 40 2 16 26 -31 217 -77 306 -42 85 -163 205 -266 267
-91 54 -267 81 -356 54z m188 -246 c5 -20 11 -21 50 -16 36 5 49 2 67 -13 13
-11 31 -20 42 -20 10 0 18 -4 18 -10 0 -5 18 -20 40 -32 23 -13 40 -31 40 -41
0 -19 2 -19 -105 8 -110 28 -227 38 -325 28 -52 -6 -99 -7 -103 -3 -14 13 73
78 132 99 31 11 75 20 97 20 35 1 43 -3 47 -20z"/>
<path d="M10250 5069 c-32 -10 -126 -81 -158 -119 -6 -8 -31 -52 -54 -98 l-42
-83 2 -112 c3 -125 17 -188 64 -278 33 -63 87 -119 115 -119 8 0 31 -9 50 -21
30 -19 37 -20 64 -8 17 7 44 26 60 43 31 34 48 30 27 -6 -10 -17 -14 -103 -18
-343 l-5 -320 -60 -5 -60 -5 0 -75 c0 -41 4 -88 8 -103 7 -25 11 -28 35 -22
15 4 80 9 144 11 102 4 118 2 126 -12 9 -16 13 -16 56 4 36 18 64 22 136 22
181 0 233 41 305 240 38 103 47 183 43 367 -4 159 -6 173 -37 266 -18 54 -40
104 -47 112 -8 7 -14 16 -14 20 0 3 -16 28 -35 56 -19 28 -35 55 -35 60 0 5
27 35 59 68 100 101 155 220 167 360 6 72 5 80 -13 89 -21 11 -131 14 -240 5
l-61 -4 -5 -37 c-4 -31 -18 -117 -33 -197 -5 -30 -64 -115 -79 -115 -15 0 -25
22 -25 52 0 12 -16 54 -35 94 -41 85 -122 174 -181 199 -48 20 -176 28 -224
14z m161 -259 c23 -1 39 -7 50 -23 18 -26 39 -103 39 -146 0 -31 -36 -138 -52
-156 -13 -14 -28 13 -28 51 0 64 -29 131 -78 181 -26 27 -58 56 -72 65 -20 13
-22 19 -13 29 19 19 86 28 104 12 8 -7 31 -13 50 -13z m-127 -235 c18 -27 21
-81 6 -119 -30 -80 -140 -65 -140 20 0 46 13 68 58 99 46 31 56 31 76 0z m478
-261 c32 -59 49 -145 37 -188 -6 -20 -5 -41 2 -59 16 -39 5 -275 -17 -347 -20
-70 -57 -110 -99 -110 l-32 0 -6 118 c-4 64 -7 205 -7 313 -1 162 2 204 16
240 19 49 52 91 68 86 6 -2 23 -26 38 -53z m-389 -841 c-7 -2 -19 -2 -25 0 -7
3 -2 5 12 5 14 0 19 -2 13 -5z"/>
<path d="M2873 5014 c-26 -12 -60 -34 -75 -50 -31 -34 -83 -161 -92 -230 -4
-27 -13 -69 -21 -94 -7 -25 -16 -76 -20 -114 -3 -38 -10 -87 -15 -110 -5 -23
-12 -54 -15 -69 -11 -55 -25 -14 -25 71 -1 168 -18 344 -41 404 -26 70 -76
130 -145 174 -48 31 -60 34 -128 34 -41 0 -87 -5 -103 -11 -41 -15 -101 -76
-131 -134 -23 -43 -27 -63 -28 -148 -1 -98 -1 -99 37 -156 43 -65 81 -101 124
-119 17 -7 46 -26 65 -43 l35 -30 5 -192 c3 -106 7 -326 8 -490 3 -297 3 -298
27 -337 24 -37 26 -38 99 -45 84 -8 189 6 211 28 8 8 12 17 9 20 -3 2 2 45 11
93 9 49 22 130 30 179 9 50 22 126 30 170 9 44 22 121 30 170 8 50 19 116 25
148 5 31 14 81 19 111 5 29 14 71 20 92 6 22 13 57 16 79 19 127 79 263 117
265 4 0 9 -15 12 -32 5 -35 16 -743 16 -1064 0 -173 2 -193 19 -213 26 -30 71
-41 164 -41 131 0 117 -71 117 618 -1 328 -5 653 -10 722 -14 200 -57 281
-185 344 -67 32 -140 32 -212 0z m-545 -230 c44 -30 21 -138 -35 -163 -44 -20
-82 -14 -93 15 -24 63 5 127 72 153 31 13 31 13 56 -5z"/>
<path d="M8775 5021 c-52 -24 -95 -68 -124 -127 -19 -37 -25 -69 -29 -145 -3
-64 -1 -102 7 -111 6 -7 29 -41 52 -75 49 -76 106 -123 147 -123 48 0 54 -17
53 -152 0 -390 12 -904 21 -915 5 -7 26 -12 46 -11 21 1 64 0 97 -1 102 -3
145 11 145 48 0 20 87 155 131 202 31 33 90 79 102 79 2 0 7 -24 10 -52 7 -64
45 -154 85 -200 17 -18 32 -45 34 -58 3 -23 8 -25 78 -31 158 -14 241 43 274
189 21 94 6 208 -36 274 l-30 48 1 526 c2 376 -1 541 -10 580 l-12 53 -129 3
c-72 2 -132 -1 -135 -5 -3 -5 -4 -243 -2 -530 l4 -522 -75 -7 c-101 -11 -154
-30 -225 -83 -33 -25 -64 -44 -69 -42 -6 2 -11 168 -13 423 -2 231 -8 448 -14
484 -22 133 -104 253 -196 284 -62 21 -139 20 -188 -3z m111 -197 c25 -7 54
-53 54 -88 0 -15 -12 -44 -26 -66 -31 -47 -81 -62 -123 -39 -65 36 -14 194 64
198 6 0 19 -2 31 -5z m856 -1108 c24 -25 29 -37 25 -63 -8 -49 -35 -99 -62
-113 -29 -16 -83 -16 -99 0 -6 6 -11 45 -11 89 0 82 7 96 55 117 33 15 57 7
92 -30z m-85 -302 c-3 -3 -12 -4 -19 -1 -8 3 -5 6 6 6 11 1 17 -2 13 -5z"/>
<path d="M7924 4999 c-83 -35 -180 -116 -216 -182 -13 -23 -34 -68 -47 -100
-23 -55 -23 -58 -6 -77 21 -23 72 -35 118 -26 23 4 38 16 52 39 26 44 66 82
115 107 47 24 71 21 63 -9 -5 -20 6 -20 83 4 17 5 27 -1 47 -27 49 -66 49 -66
43 -724 l-6 -614 25 -40 c26 -42 34 -47 51 -30 6 6 52 12 103 14 51 2 96 7
101 12 5 5 10 305 12 669 3 627 2 663 -16 715 -26 77 -73 147 -136 203 -67 60
-90 72 -165 86 -94 18 -143 13 -221 -20z"/>
<path d="M3591 5008 c-101 -29 -172 -125 -191 -256 -11 -80 -4 -107 46 -182
61 -94 105 -136 151 -145 77 -14 75 -11 72 -158 -2 -73 -1 -304 0 -515 l4
-384 26 -9 c14 -6 29 -15 32 -21 6 -10 224 -16 234 -6 2 2 7 20 10 39 11 72
23 137 43 234 11 55 28 141 37 190 74 416 108 568 142 643 15 33 15 34 30 13
8 -12 18 -42 23 -69 5 -26 15 -74 24 -107 8 -33 15 -80 16 -105 0 -26 4 -50
10 -56 5 -5 14 -32 20 -59 5 -28 19 -90 30 -140 11 -49 25 -117 31 -150 5 -33
19 -95 29 -139 11 -43 20 -94 20 -114 0 -19 8 -57 18 -84 19 -57 70 -98 122
-98 16 0 30 -4 30 -10 0 -14 17 -13 53 4 18 8 43 16 57 18 19 2 26 11 33 43 5
22 6 219 3 440 -4 220 -7 566 -7 768 0 350 -1 369 -20 388 -17 17 -34 19 -139
19 l-120 0 0 -282 c0 -280 -6 -388 -20 -388 -10 0 -38 109 -100 390 -29 129
-56 243 -61 252 -12 22 -59 31 -117 23 l-48 -6 -13 -62 c-23 -117 -31 -152
-50 -227 -11 -41 -24 -109 -30 -150 -5 -41 -21 -115 -35 -165 l-25 -90 -1 60
c-11 451 -29 526 -143 603 -83 56 -153 71 -226 50z m105 -206 c23 -15 32 -66
19 -115 -14 -55 -37 -84 -74 -92 -48 -10 -78 9 -86 53 -6 35 -2 47 27 91 37
57 84 83 114 63z m474 -160 c0 -4 -5 -13 -11 -19 -5 -5 -13 -32 -15 -59 -8
-68 -14 -68 -14 -1 0 32 5 57 10 57 6 0 10 7 10 15 0 8 5 15 10 15 6 0 10 -4
10 -8z m-47 -184 c-3 -16 -9 -28 -14 -28 -4 0 -3 14 3 31 12 36 18 35 11 -3z
m-16 -80 c-3 -7 -5 -2 -5 12 0 14 2 19 5 13 2 -7 2 -19 0 -25z m-17 -68 l-8
-35 -1 31 c-1 17 2 34 6 37 11 12 12 3 3 -33z"/>
<path d="M6344 5011 c-66 -17 -140 -91 -165 -166 -21 -66 -15 -185 14 -247 49
-106 124 -178 186 -178 21 0 31 -18 31 -56 0 -14 4 -33 10 -43 5 -10 10 -198
11 -447 1 -236 4 -445 6 -464 3 -26 13 -41 37 -57 39 -25 120 -40 130 -24 4 6
25 11 47 11 47 0 79 27 79 68 0 15 9 59 20 97 11 39 23 95 26 125 3 30 9 59
12 65 3 5 10 30 14 55 7 44 14 79 38 190 6 30 20 107 30 170 11 63 24 135 30
160 6 25 12 52 13 60 8 55 52 199 59 192 13 -13 48 -163 48 -207 0 -22 4 -45
9 -50 6 -6 16 -41 25 -80 8 -38 35 -166 61 -283 25 -117 43 -217 40 -222 -4
-6 2 -34 13 -63 11 -28 25 -83 31 -122 15 -86 30 -125 46 -125 7 0 18 -7 25
-15 9 -11 35 -15 102 -15 145 0 129 -105 128 823 -2 713 -3 804 -17 820 -14
14 -35 17 -140 17 l-123 0 -2 -212 c-1 -117 0 -282 1 -365 4 -173 -7 -199 -33
-75 -19 89 -26 121 -61 257 -14 55 -32 125 -40 155 -7 30 -19 82 -25 115 -7
33 -18 75 -26 93 -13 32 -14 32 -82 32 -80 0 -81 -1 -101 -115 -44 -248 -122
-610 -135 -622 -2 -2 -6 105 -8 239 -5 213 -8 251 -27 310 -25 77 -79 142
-148 178 -47 24 -139 34 -189 21z m54 -244 c18 10 38 14 55 9 24 -6 27 -11 27
-52 0 -51 -12 -81 -44 -106 -27 -23 -89 -23 -107 -1 -19 22 -17 108 3 130 8
10 13 25 11 33 -3 8 2 5 11 -7 16 -21 18 -21 44 -6z"/>
<path d="M5190 4982 c-87 -42 -148 -126 -173 -239 -26 -114 -5 -276 45 -345
11 -16 19 -38 18 -51 -4 -41 0 -47 26 -47 14 0 33 -7 41 -16 15 -14 12 -19
-29 -54 -27 -24 -55 -60 -69 -92 -23 -50 -24 -63 -24 -253 0 -198 0 -201 28
-265 16 -36 32 -81 36 -100 4 -24 13 -36 26 -39 11 -2 39 -20 62 -40 132 -116
169 -134 299 -147 35 -4 64 -10 64 -14 0 -12 36 -18 52 -9 8 4 50 17 94 29
190 51 293 155 334 337 14 60 14 1298 0 1323 -10 18 -22 20 -145 20 l-135 0
-1 -322 c-1 -178 0 -465 1 -638 1 -357 -4 -391 -67 -461 -46 -51 -90 -69 -168
-69 -80 0 -120 25 -157 99 -28 54 -28 56 -28 253 0 280 7 293 160 305 77 6 78
6 84 36 10 51 7 122 -7 141 -11 15 -32 20 -113 24 -107 5 -124 12 -124 48 0
23 4 24 58 24 34 0 66 6 77 14 11 8 25 12 32 9 9 -3 11 0 7 10 -3 10 2 21 15
29 12 7 21 16 21 20 0 4 5 19 12 35 19 48 21 56 25 138 7 114 -16 186 -76 243
-71 66 -108 82 -193 81 -47 0 -86 -6 -108 -17z m208 -170 c8 -6 13 -36 15 -85
2 -92 -14 -116 -86 -124 -38 -5 -46 -2 -61 18 -30 43 -11 154 31 187 19 13 81
16 101 4z"/>
<path d="M10884 2616 c-137 -45 -218 -146 -281 -351 -27 -86 -28 -100 -28
-290 0 -222 10 -284 66 -440 31 -84 38 -95 120 -176 83 -82 90 -86 146 -95
155 -25 269 48 350 224 60 129 74 196 80 392 4 136 2 196 -11 268 -19 107 -54
215 -93 281 -85 146 -232 224 -349 187z m175 -232 c38 -86 51 -192 51 -423 0
-387 -49 -551 -164 -551 -57 0 -101 78 -127 226 -18 102 -15 489 4 586 19 92
55 169 85 183 12 5 22 13 22 17 0 5 25 8 55 8 l54 0 20 -46z"/>
<path d="M10041 2543 c-11 -21 -29 -49 -42 -62 -33 -35 -125 -74 -183 -77
l-51 -2 -3 -57 c-4 -82 10 -95 105 -95 64 0 73 -2 73 -18 0 -11 8 -29 19 -41
17 -19 19 -49 26 -340 4 -175 4 -355 0 -399 l-7 -81 -41 -6 c-23 -3 -62 -6
-87 -8 l-45 -2 -2 -40 c-1 -22 5 -50 13 -63 14 -21 20 -22 154 -22 108 0 142
-3 153 -15 16 -15 53 -13 71 5 5 5 33 10 60 11 28 0 71 4 96 7 l45 7 1 45 c2
75 -4 80 -101 80 l-85 0 0 589 c0 324 -3 596 -6 605 -5 12 -21 16 -75 16 l-69
0 -19 -37z"/>
<path d="M8450 2549 c-8 -11 -42 -31 -75 -44 -53 -22 -75 -25 -190 -25 -75 0
-154 6 -188 14 -31 7 -59 11 -61 7 -3 -4 -8 -176 -12 -384 -5 -267 -4 -377 4
-377 6 0 18 -7 27 -16 11 -12 25 -14 51 -10 31 6 38 14 65 71 34 72 72 109
129 126 47 14 78 7 114 -26 20 -19 27 -34 26 -58 -3 -47 -1 -51 14 -38 12 10
17 8 28 -11 20 -36 17 -239 -4 -309 -32 -102 -126 -171 -193 -141 -23 11 -23
12 -9 42 22 42 19 120 -4 167 -14 26 -34 46 -65 61 -53 26 -56 26 -105 7 -73
-30 -103 -138 -69 -251 13 -44 77 -109 152 -154 22 -13 46 -32 53 -41 10 -14
18 -16 40 -9 15 5 57 12 94 15 96 9 176 51 234 123 88 108 118 196 118 342 0
129 -14 191 -66 298 -33 67 -51 91 -92 122 -125 94 -226 108 -341 47 l-65 -35
0 44 c0 24 4 44 8 44 4 0 13 14 19 30 9 24 17 30 42 30 17 0 31 -4 31 -9 0 -5
32 0 71 11 39 11 73 17 76 15 7 -8 63 14 63 24 0 5 4 9 10 9 20 0 113 107 135
155 13 28 25 73 26 100 l4 50 -40 2 c-30 1 -44 -3 -55 -18z"/>
<path d="M9090 2541 c-125 -26 -231 -151 -274 -322 -36 -146 -1 -365 73 -448
11 -13 21 -37 21 -54 0 -26 3 -29 25 -25 16 4 36 -3 57 -18 17 -13 54 -31 82
-40 28 -9 57 -21 63 -27 15 -11 29 -8 107 27 l58 27 -4 -58 c-12 -141 -103
-273 -189 -273 -16 0 -19 4 -14 18 16 37 17 127 1 164 -21 50 -74 89 -124 91
-136 5 -174 -198 -60 -323 65 -70 109 -93 204 -104 44 -5 109 11 164 39 35 18
100 79 100 94 0 5 6 11 14 14 23 9 107 193 119 262 3 17 13 68 22 115 14 67
16 118 12 245 -8 233 -47 366 -140 474 -57 67 -97 94 -169 115 -59 17 -90 18
-148 7z m176 -200 c67 -102 60 -407 -11 -508 -37 -52 -122 -65 -158 -25 -41
45 -60 115 -65 238 -6 160 9 215 78 284 43 43 55 50 90 50 35 0 43 -4 66 -39z"/>
<path d="M2220 2498 c-93 -36 -181 -147 -223 -283 -43 -138 -50 -199 -44 -357
9 -230 37 -360 105 -495 28 -54 156 -185 175 -177 8 3 28 -6 44 -20 50 -42
154 -36 241 13 23 14 42 30 42 37 0 7 3 14 8 16 16 7 71 87 96 142 54 115 76
233 76 412 0 376 -101 617 -295 705 -78 35 -145 37 -225 7z m193 -186 c52 -57
77 -223 79 -517 3 -285 -19 -399 -87 -468 -34 -33 -74 -35 -102 -4 -75 84
-115 374 -94 685 11 176 27 221 95 284 46 41 84 48 109 20z"/>
<path d="M5562 2468 c-16 -29 -58 -107 -92 -173 -139 -267 -187 -357 -267
-501 -81 -147 -83 -153 -83 -218 0 -97 12 -105 152 -106 94 0 109 -2 117 -19
8 -13 19 -17 43 -14 91 10 83 17 83 -67 l0 -75 -85 -1 -85 -2 0 -52 c0 -51 1
-53 35 -65 76 -27 128 -32 250 -26 69 3 151 3 184 -1 32 -5 72 -4 90 0 31 8
31 9 31 73 l0 64 -85 5 -85 5 -3 57 c-2 41 2 65 14 83 15 22 23 25 78 25 35 0
67 5 74 12 14 14 16 154 3 163 -6 3 -46 8 -90 12 l-81 6 0 424 0 423 -26 10
c-14 6 -52 10 -84 10 l-59 0 -29 -52z m-38 -510 c3 -13 6 -77 6 -143 0 -173 4
-165 -94 -165 -44 0 -91 3 -103 6 l-21 6 21 36 c11 21 27 45 35 55 8 9 12 17
8 17 -4 0 1 12 12 28 10 15 25 44 33 65 14 36 76 116 90 117 4 0 9 -10 13 -22z"/>
<path d="M6439 2509 c-62 -9 -105 -32 -162 -88 -132 -126 -197 -329 -197 -610
0 -205 18 -306 71 -416 47 -97 126 -187 189 -217 133 -62 176 -65 271 -19 65
32 119 84 146 141 67 138 88 237 78 355 -18 195 -88 318 -219 384 -62 32 -70
34 -137 27 -38 -3 -88 -15 -109 -26 -55 -28 -60 -26 -54 21 7 58 67 222 83
227 10 3 12 -1 7 -14 -4 -11 12 2 35 28 22 27 45 46 49 43 5 -3 9 -27 8 -54 0
-65 7 -86 55 -148 38 -51 41 -53 88 -53 71 0 95 15 113 71 34 103 13 202 -58
272 -66 63 -158 90 -257 76z m96 -641 c80 -71 97 -337 30 -485 -37 -82 -106
-106 -164 -58 -50 43 -66 109 -65 265 2 161 18 233 53 238 13 2 42 17 64 33
48 35 49 35 82 7z"/>
<path d="M4069 2499 c-121 -18 -219 -119 -274 -284 -25 -74 -27 -89 -22 -200
3 -76 11 -139 22 -171 17 -50 108 -184 125 -184 5 0 29 -18 54 -39 40 -35 53
-40 113 -45 37 -4 89 -9 116 -12 29 -3 47 -1 47 6 0 5 5 10 10 10 18 0 10 -68
-16 -139 -31 -85 -88 -151 -129 -151 -24 0 -26 3 -21 25 18 73 17 110 -6 150
-59 101 -189 115 -241 26 -60 -104 0 -259 128 -326 38 -20 87 -36 135 -43 l75
-11 53 36 c107 73 212 221 250 353 6 19 16 53 22 75 18 63 25 342 10 447 -23
174 -77 297 -165 383 -83 81 -173 110 -286 94z m173 -225 c43 -69 49 -302 12
-413 -23 -68 -73 -121 -115 -121 -46 0 -66 16 -95 73 -22 43 -28 71 -33 162
-10 159 9 254 61 312 18 19 28 21 87 18 59 -3 68 -6 83 -31z"/>
<path d="M7305 2493 c-36 -10 -121 -70 -159 -114 -69 -78 -137 -244 -155 -379
-40 -282 18 -592 137 -732 15 -18 36 -46 45 -61 10 -15 22 -25 27 -22 6 4 10
2 10 -3 0 -5 19 -15 43 -23 23 -7 53 -19 67 -26 14 -7 46 -13 72 -13 26 0 48
-5 50 -12 6 -17 62 18 131 82 109 102 167 239 167 400 0 220 -76 372 -220 439
-72 34 -172 35 -244 3 -27 -12 -50 -22 -52 -22 -13 0 0 91 21 159 20 63 35 89
70 125 58 61 75 60 76 -1 1 -86 27 -131 107 -187 49 -34 56 -36 82 -25 37 17
78 81 86 136 16 110 -58 230 -165 268 -42 14 -152 19 -196 8z m147 -650 c38
-45 53 -114 53 -253 0 -160 -16 -221 -71 -270 -51 -44 -102 -42 -138 5 -50 66
-60 108 -60 260 1 122 4 146 22 185 12 25 22 41 22 36 0 -5 9 3 21 18 15 19
26 25 44 20 12 -3 26 -1 29 5 11 17 61 13 78 -6z"/>
<path d="M3165 2476 c-99 -24 -178 -85 -223 -170 -25 -46 -27 -61 -27 -161 0
-98 3 -116 26 -165 14 -31 40 -72 58 -92 17 -20 31 -41 31 -47 0 -6 -15 -27
-34 -46 -49 -49 -106 -169 -113 -238 -12 -121 32 -243 123 -337 97 -100 203
-136 340 -116 96 14 143 41 203 120 79 104 107 194 98 316 -8 103 -38 179
-100 252 -29 33 -56 66 -61 73 -7 9 0 25 20 51 81 105 102 222 64 348 -33 104
-129 187 -252 216 -55 12 -91 11 -153 -4z m147 -161 c56 -20 84 -66 87 -143 2
-55 -26 -130 -67 -181 l-20 -25 -47 25 c-59 30 -131 93 -150 130 -25 48 -19
85 22 130 34 38 94 78 119 79 6 0 31 -7 56 -15z m-30 -642 c28 -10 70 -35 94
-56 109 -96 84 -270 -48 -338 -50 -26 -84 -24 -143 9 -120 66 -143 269 -41
364 46 43 66 46 138 21z"/>
<path d="M4660 1912 c-6 -2 -10 -41 -10 -91 0 -81 2 -89 26 -112 22 -21 35
-24 122 -26 53 -1 117 -6 142 -12 37 -8 49 -7 70 7 14 9 28 15 33 14 13 -4 8
206 -5 215 -12 7 -356 12 -378 5z"/>
</g>
</svg>
